# xmcd
#
# Track frame offsets: 
#        150
#        21083
#        40116
#        61100
#        71330
#        91145
#        104705
#        117349
#        133344
#        148224
#        162425
#        199780
#        221538
#
# Disc length: 3259 seconds
#
# Revision: 0
# Processed by: cddbd v1.5.2PL0 Copyright (c) Steve Scherf et al.
# Submitted via: ExactAudioCopy v1.0b3
#
DISCID=c00cb90d
DTITLE=Bena and Ptaszek - V Kriminále
DYEAR=2009
DGENRE=Blues
TTITLE0=Midnight Special
TTITLE1=Baby, Please Don't Go
TTITLE2=Diggin' My Potatoes
TTITLE3=Cotton Song
TTITLE4=Come On In My Kitchen
TTITLE5=Take This Hammer
TTITLE6=You Got To Move
TTITLE7=My Babe
TTITLE8=Goin' Down South
TTITLE9=You Are My Sunshine
TTITLE10=Got My Mojo Working
TTITLE11=Pick A Bale Of Cotton
TTITLE12=Stormy Monday (Bonus)
EXTD=
EXTT0=
EXTT1=
EXTT2=
EXTT3=
EXTT4=
EXTT5=
EXTT6=
EXTT7=
EXTT8=
EXTT9=
EXTT10=
EXTT11=
EXTT12=
PLAYORDER=
